<?xml version="1.0" encoding="UTF-8" standalone="no"?>
<svg
   xmlns:dc="http://purl.org/dc/elements/1.1/"
   xmlns:cc="http://creativecommons.org/ns#"
   xmlns:rdf="http://www.w3.org/1999/02/22-rdf-syntax-ns#"
   xmlns:svg="http://www.w3.org/2000/svg"
   xmlns="http://www.w3.org/2000/svg"
   viewBox="0 0 682.66534 682.53735"
   height="682.53735"
   width="682.66534"
   xml:space="preserve"
   id="svg2"
   version="1.1"><metadata
     id="metadata8"><rdf:RDF><cc:Work
         rdf:about=""><dc:format>image/svg+xml</dc:format><dc:type
           rdf:resource="http://purl.org/dc/dcmitype/StillImage" /></cc:Work></rdf:RDF></metadata><defs
     id="defs6"><clipPath
       id="clipPath18"
       clipPathUnits="userSpaceOnUse"><path
         id="path16"
         d="M 0,511.903 H 511.999 V 0 H 0 Z" /></clipPath></defs><g
     transform="matrix(1.3333333,0,0,-1.3333333,0,682.53733)"
     id="g10"><g
       id="g12"><g
         clip-path="url(#clipPath18)"
         id="g14"><g
           transform="translate(256.0576,162.131)"
           id="g20"><path
             id="path22"
             style="fill:#ffc373;fill-opacity:1;fill-rule:nonzero;stroke:none"
             d="m 0,0 c -51.895,0 -93.963,42.071 -93.963,93.965 0,51.894 42.069,93.963 93.963,93.963 51.895,0 93.965,-42.069 93.965,-93.963 C 93.965,42.071 51.896,0 0,0 M 148.684,-114.218 C 213.538,-67.814 255.806,8.14 255.806,93.965 255.806,235.242 141.277,349.77 0,349.77 c -141.276,0 -255.805,-114.527 -255.805,-255.804 0,-195.673 211.029,-318.153 380.455,-223.434" /></g><g
           transform="translate(31.5391,256.0968)"
           id="g24"><path
             id="path26"
             style="fill:#ef9a4d;fill-opacity:1;fill-rule:nonzero;stroke:none"
             d="M 0,0 C 0,136.022 106.173,247.229 240.163,255.316 92.208,264.241 -31.286,146.775 -31.286,0 c 0,-146.678 123.408,-264.289 271.553,-255.322 C 106.227,-247.288 0,-136.059 0,0" /></g><g
           transform="translate(256.0576,162.131)"
           id="g28"><path
             id="path30"
             style="fill:#ffde2a;fill-opacity:1;fill-rule:nonzero;stroke:none"
             d="m 0,0 c -51.895,0 -93.963,42.071 -93.963,93.965 0,51.894 42.069,93.963 93.963,93.963 51.895,0 93.965,-42.069 93.965,-93.963 C 93.965,42.071 51.896,0 0,0 m 49.194,-79.442 c 6.956,-4.519 16.525,-10.975 28.084,-9.287 10.555,0.996 12.132,3.225 53.822,30.313 4.905,2.896 19.42,9.534 35.866,-1.147 l 0.002,-0.003 24.592,-15.977 c 39.966,45.133 64.245,104.48 64.245,169.51 0,141.277 -114.529,255.805 -255.806,255.805 -141.276,0 -255.805,-114.528 -255.805,-255.805 0,-65.028 24.278,-124.377 64.246,-169.51 l 24.591,15.977 0.002,0.003 c 16.445,10.681 30.959,4.044 35.868,1.147 26.748,-17.381 17.752,-11.536 39.571,-25.711 5.795,-3.395 12.351,-4.603 14.29,-4.603 15.036,-1.491 21.915,5.307 58.635,29.165 1.254,1.253 18.141,12.386 37.203,0.002 l 0.002,-0.002 5.859,-4.197" /></g><g
           transform="translate(317.1875,184.7658)"
           id="g32"><path
             id="path34"
             style="fill:#ffdf5a;fill-opacity:1;fill-rule:nonzero;stroke:none"
             d="M 0,0 C 41.006,-38.435 95.662,-62.478 155.923,-64.045 252.569,90.543 159.914,295.428 -20.922,323.981 -57.231,279.956 -77.066,223.83 -74.87,164.283 -17.799,172.651 32.836,128.421 32.836,71.331 32.835,42.786 20.091,17.234 0,0" /></g><g
           transform="translate(15.46,169.0392)"
           id="g36"><path
             id="path38"
             style="fill:#e5bd17;fill-opacity:1;fill-rule:nonzero;stroke:none"
             d="m 0,0 c 14.869,-41.225 34.816,-65.158 49.039,-82.452 l 20.347,13.22 C 35.973,-26.011 16.079,28.196 16.079,87.057 16.078,223.079 122.251,334.285 256.24,342.372 c -0.982,0.112 -9.459,0.49 -15.642,0.49 C 62.633,342.863 -60.16,165.7 0,0" /></g><g
           transform="translate(196.1001,431.3551)"
           id="g40"><path
             id="path42"
             style="fill:#602121;fill-opacity:1;fill-rule:nonzero;stroke:none"
             d="m 0,0 c 8.45,0 15.301,-6.851 15.301,-15.301 0,-8.45 -6.851,-15.301 -15.301,-15.301 -8.451,0 -15.301,6.851 -15.301,15.301 C -15.301,-6.851 -8.451,0 0,0" /></g><g
           transform="translate(136.1958,184.674)"
           id="g44"><path
             id="path46"
             style="fill:#602121;fill-opacity:1;fill-rule:nonzero;stroke:none"
             d="m 0,0 c 8.451,0 15.302,-6.851 15.302,-15.302 0,-8.451 -6.851,-15.302 -15.302,-15.302 -8.451,0 -15.302,6.851 -15.302,15.302 C -15.302,-6.851 -8.451,0 0,0" /></g><g
           transform="translate(421.0586,369.7721)"
           id="g48"><path
             id="path50"
             style="fill:#602121;fill-opacity:1;fill-rule:nonzero;stroke:none"
             d="m 0,0 c 8.451,0 15.302,-6.851 15.302,-15.301 0,-8.45 -6.851,-15.301 -15.302,-15.301 -8.45,0 -15.301,6.851 -15.301,15.301 C -15.301,-6.851 -8.45,0 0,0" /></g><g
           transform="translate(338.292,158.6935)"
           id="g52"><path
             id="path54"
             style="fill:#602121;fill-opacity:1;fill-rule:nonzero;stroke:none"
             d="m 0,0 c 8.451,0 15.302,-6.852 15.302,-15.303 0,-8.45 -6.851,-15.301 -15.302,-15.301 -8.451,0 -15.302,6.851 -15.302,15.301 C -15.302,-6.852 -8.451,0 0,0" /></g><g
           transform="translate(436.3575,240.1203)"
           id="g56"><path
             id="path58"
             style="fill:#602121;fill-opacity:1;fill-rule:nonzero;stroke:none"
             d="m 0,0 c 8.45,0 15.301,-6.851 15.301,-15.301 0,-8.451 -6.851,-15.302 -15.301,-15.302 -8.451,0 -15.302,6.851 -15.302,15.302 C -15.302,-6.851 -8.451,0 0,0" /></g><g
           transform="translate(299.042,416.0553)"
           id="g60"><path
             id="path62"
             style="fill:#602121;fill-opacity:1;fill-rule:nonzero;stroke:none"
             d="m 0,0 c 8.45,0 15.3,-6.85 15.3,-15.3 0,-8.45 -6.85,-15.3 -15.3,-15.3 -8.45,0 -15.3,6.85 -15.3,15.3 C -15.3,-6.85 -8.45,0 0,0" /></g><g
           transform="translate(98.815,259.4162)"
           id="g64"><path
             id="path66"
             style="fill:#602121;fill-opacity:1;fill-rule:nonzero;stroke:none"
             d="m 0,0 c 8.451,0 15.301,-6.851 15.301,-15.301 0,-8.451 -6.85,-15.301 -15.301,-15.301 -8.451,0 -15.301,6.85 -15.301,15.301 C -15.301,-6.851 -8.451,0 0,0" /></g><g
           transform="translate(370.0176,371.6173)"
           id="g68"><path
             id="path70"
             style="fill:#602121;fill-opacity:1;fill-rule:nonzero;stroke:none"
             d="m 0,0 c 5.982,0 10.831,-4.849 10.831,-10.831 0,-5.982 -4.849,-10.831 -10.831,-10.831 -5.981,0 -10.83,4.849 -10.83,10.831 C -10.83,-4.849 -5.981,0 0,0" /></g><g
           transform="translate(98.815,380.7614)"
           id="g72"><path
             id="path74"
             style="fill:#602121;fill-opacity:1;fill-rule:nonzero;stroke:none"
             d="m 0,0 c 5.982,0 10.832,-4.85 10.832,-10.832 0,-5.982 -4.85,-10.832 -10.832,-10.832 -5.982,0 -10.832,4.85 -10.832,10.832 C -10.832,-4.85 -5.982,0 0,0" /></g><g
           transform="translate(52.0401,228.8175)"
           id="g76"><path
             id="path78"
             style="fill:#602121;fill-opacity:1;fill-rule:nonzero;stroke:none"
             d="m 0,0 c 5.982,0 10.832,-4.85 10.832,-10.832 0,-5.982 -4.85,-10.832 -10.832,-10.832 -5.982,0 -10.832,4.85 -10.832,10.832 C -10.832,-4.85 -5.982,0 0,0" /></g><g
           transform="translate(245.2232,449.881)"
           id="g80"><path
             id="path82"
             style="fill:#602121;fill-opacity:1;fill-rule:nonzero;stroke:none"
             d="m 0,0 c 5.982,0 10.832,-4.85 10.832,-10.832 0,-5.982 -4.85,-10.832 -10.832,-10.832 -5.982,0 -10.832,4.85 -10.832,10.832 C -10.832,-4.85 -5.982,0 0,0" /></g><g
           transform="translate(391.6807,180.2238)"
           id="g84"><path
             id="path86"
             style="fill:#602121;fill-opacity:1;fill-rule:nonzero;stroke:none"
             d="m 0,0 c 5.982,0 10.832,-4.85 10.832,-10.832 0,-5.981 -4.85,-10.832 -10.832,-10.832 -5.982,0 -10.832,4.851 -10.832,10.832 C -10.832,-4.85 -5.982,0 0,0" /></g><g
           transform="translate(169.96,143.3918)"
           id="g88"><path
             id="path90"
             style="fill:#602121;fill-opacity:1;fill-rule:nonzero;stroke:none"
             d="m 0,0 c 5.982,0 10.832,-4.85 10.832,-10.832 0,-5.981 -4.85,-10.831 -10.832,-10.831 -5.982,0 -10.832,4.85 -10.832,10.831 C -10.832,-4.85 -5.982,0 0,0" /></g><g
           transform="translate(443.3916,303.4103)"
           id="g92"><path
             id="path94"
             style="fill:#602121;fill-opacity:1;fill-rule:nonzero;stroke:none"
             d="m 0,0 c 5.982,0 10.832,-4.85 10.832,-10.832 0,-5.982 -4.85,-10.832 -10.832,-10.832 -5.982,0 -10.832,4.85 -10.832,10.832 C -10.832,-4.85 -5.982,0 0,0" /></g><g
           transform="translate(384.8252,281.4953)"
           id="g96"><path
             id="path98"
             style="fill:#602121;fill-opacity:1;fill-rule:nonzero;stroke:none"
             d="m 0,0 -15.049,7.067 c -4.17,1.959 -5.964,6.927 -4.007,11.097 1.958,4.17 6.928,5.962 11.098,4.006 L 7.091,15.103 C 11.261,13.145 13.055,8.176 11.097,4.007 9.144,-0.15 4.188,-1.961 0,0" /></g><g
           transform="translate(82.6153,295.859)"
           id="g100"><path
             id="path102"
             style="fill:#602121;fill-opacity:1;fill-rule:nonzero;stroke:none"
             d="m 0,0 -15.05,7.067 c -4.171,1.959 -5.962,6.927 -4.006,11.097 1.959,4.17 6.928,5.959 11.097,4.006 L 7.091,15.103 C 11.262,13.145 13.054,8.176 11.097,4.007 9.139,-0.157 4.182,-1.959 0,0" /></g><g
           transform="translate(334.7491,431.4982)"
           id="g104"><path
             id="path106"
             style="fill:#602121;fill-opacity:1;fill-rule:nonzero;stroke:none"
             d="m 0,0 -15.05,7.066 c -4.171,1.959 -5.963,6.927 -4.006,11.097 1.958,4.17 6.928,5.961 11.096,4.006 L 7.09,15.102 C 11.261,13.143 13.053,8.176 11.096,4.006 9.139,-0.159 4.178,-1.961 0,0" /></g><g
           transform="translate(163.1109,358.6842)"
           id="g108"><path
             id="path110"
             style="fill:#602121;fill-opacity:1;fill-rule:nonzero;stroke:none"
             d="m 0,0 -15.05,7.066 c -4.17,1.959 -5.964,6.925 -4.006,11.096 1.959,4.169 6.927,5.959 11.096,4.005 L 7.09,15.102 C 11.26,13.143 13.054,8.176 11.096,4.006 9.143,-0.157 4.178,-1.959 0,0" /></g><g
           transform="translate(359.1094,192.7404)"
           id="g112"><path
             id="path114"
             style="fill:#602121;fill-opacity:1;fill-rule:nonzero;stroke:none"
             d="m 0,0 c -2.402,3.932 -1.161,9.063 2.77,11.466 l 14.187,8.665 c 3.932,2.4 9.064,1.16 11.466,-2.771 2.4,-3.931 1.161,-9.064 -2.772,-11.466 L 11.466,-2.771 C 7.541,-5.171 2.402,-3.936 0,0" /></g><g
           transform="translate(71.98,171.9318)"
           id="g116"><path
             id="path118"
             style="fill:#602121;fill-opacity:1;fill-rule:nonzero;stroke:none"
             d="m 0,0 c -8.371,0 -11.544,11.074 -4.356,15.461 l 14.188,8.665 c 3.932,2.4 9.065,1.161 11.466,-2.771 2.401,-3.93 1.16,-9.066 -2.77,-11.466 L 4.34,1.225 C 2.983,0.395 1.483,0 0,0" /></g></g></g></g></svg>