<svg id="Layer_1" data-name="Layer 1" xmlns="http://www.w3.org/2000/svg" viewBox="0 0 162.78 193.31"><defs><style>.cls-1{fill:#fee935;fill-rule:evenodd;}</style></defs><path class="cls-1" d="M0,0V193.31L81.39,155l81.39,38.31V0ZM106.59,112.28H56.2V97.74L78.9,73.15c.4-.47,1-1.1,1.75-1.9s1.29-1.36,1.59-1.69l1.19-1.34a6.35,6.35,0,0,0,1-1.4c.16-.36.33-.76.5-1.19a3.85,3.85,0,0,0,.25-1.35A3.78,3.78,0,0,0,84,61.44,4.85,4.85,0,0,0,80.5,60.3q-5.58,0-8.27,7.07L54.71,57.81A26.42,26.42,0,0,1,65,45.26,28,28,0,0,1,80.2,41a27.3,27.3,0,0,1,17.57,5.83q7.32,5.82,7.32,16.08a21.25,21.25,0,0,1-2.74,11A73.77,73.77,0,0,1,93.74,85.1L86.67,93h19.92Z"/></svg>